<svg width="20" height="20" viewBox="0 0 20 20" fill="none" xmlns="http://www.w3.org/2000/svg">
<path d="M5.65403 4.78906C3.28685 7.42188 1.24388 9.71094 1.11888 9.87891C0.83372 10.2578 0.380595 11.168 0.251689 11.6172C-0.16628 13.0938 -0.0647171 14.5 0.564189 15.8086C1.09544 16.918 1.87669 17.7383 2.8806 18.2422C4.12669 18.8633 5.59544 18.8633 6.85325 18.2422C7.447 17.9492 7.84935 17.6211 8.51341 16.8906C8.83763 16.5391 9.09935 16.2578 9.09935 16.2695C9.09935 16.2852 7.90013 19.6992 7.822 19.9102C7.80638 19.9492 8.2556 19.9609 9.99778 19.9609C11.74 19.9609 12.1892 19.9492 12.1736 19.9102C12.0251 19.5156 10.8962 16.2773 10.904 16.2695C10.9118 16.2617 11.1423 16.5156 11.4236 16.8242C11.7009 17.1367 12.0368 17.4844 12.1658 17.5977C14.0095 19.1992 16.7673 19.0586 18.4392 17.2773C19.1501 16.5195 19.6579 15.5391 19.8884 14.4805C19.9626 14.1445 19.9743 13.9609 19.9743 13.3008C19.9743 12.582 19.9665 12.4805 19.865 12.0508C19.6736 11.2188 19.3298 10.4727 18.8454 9.82812C18.7322 9.67578 18.4314 9.32031 18.1775 9.03906C17.9197 8.75781 15.9822 6.60938 13.8689 4.26172C11.7556 1.91797 10.0134 0 9.99778 0C9.98216 0 8.02513 2.15625 5.65403 4.78906Z" fill="url(#paint0_linear_12_27)"/>
<defs>
<linearGradient id="paint0_linear_12_27" x1="31" y1="8.5" x2="-2" y2="8.5" gradientUnits="userSpaceOnUse">
<stop stop-color="#60A5FA"/>
<stop offset="0.5" stop-color="#4E94F8"/>
<stop offset="1" stop-color="#2563EB"/>
</linearGradient>
</defs>
</svg>
