<svg width="797" height="832" viewBox="0 0 797 832" fill="none" xmlns="http://www.w3.org/2000/svg">
<path d="M396.875 269.135C396.875 269.135 672.795 34.4334 217.304 0H878V807.8L561.762 1052C433.294 1052 -381.45 835.901 217.304 744.87C712.366 744.87 978.194 345.816 627.201 371.643C276.207 397.471 396.875 269.135 396.875 269.135Z" fill="white"/>
<path d="M221.383 712.431C146.596 712.431 318.193 678.391 409.957 658.863C501.72 639.335 626.059 575.88 626.059 607.85C626.059 639.82 571.918 658.863 477.861 678.391C352.49 704.42 296.17 712.431 221.383 712.431Z" fill="white"/>
<path d="M423.713 138.597C449.748 172.87 376.661 101.333 314.033 72.7455C251.405 44.1577 138.274 60.0638 188.507 38.021C238.741 15.9782 345.581 32.2962 409.008 61.9353C493.55 101.442 397.679 104.325 423.713 138.597Z" fill="white"/>
<path d="M151.443 775.12C154.013 777.561 148.691 780.351 143.644 783.14C138.576 783.14 128.503 788.387 128.503 784.535C128.503 780.683 135.351 775.469 139.939 773.725C145.445 771.633 147.773 771.633 151.443 775.12Z" fill="white"/>
</svg>
