<svg width="957" height="1024" viewBox="0 0 957 1024" fill="none" xmlns="http://www.w3.org/2000/svg">
<path d="M432.5 340C432.5 340 733.187 43.5 236.81 0H956.812V1020.5L612.187 1329C472.188 1329 -415.69 1056 236.81 941C776.31 941 1066 436.872 683.5 469.5C301 502.128 432.5 340 432.5 340Z" fill="white"/>
<path d="M190 930C108.5 930 295.5 881.193 395.5 853.193C495.5 825.193 631 734.209 631 780.049C631 825.888 572 853.193 469.5 881.193C332.876 918.514 271.5 930 190 930Z" fill="white"/>
<path d="M454.026 176.921C482.397 226.062 402.75 123.49 334.5 82.5001C266.25 41.5099 142.964 64.3167 197.707 32.711C252.45 1.10528 368.88 24.5025 438 67C530.132 123.646 425.654 127.78 454.026 176.921Z" fill="white"/>
<path d="M165.037 932C167.837 935.5 162.037 939.5 156.537 943.5C151.015 943.5 140.037 951.023 140.037 945.5C140.037 939.977 147.5 932.5 152.5 930C158.5 927 161.037 927 165.037 932Z" fill="white"/>
</svg>
